<svg width="64" height="64" viewBox="0 0 64 64" fill="none" xmlns="http://www.w3.org/2000/svg">
<g clip-path="url(#clip0_29_19)">
<path d="M45.0039 0.272058C45.3954 0.499012 45.6984 0.852018 45.8633 1.27341C46.0282 1.6948 46.0454 2.15966 45.9119 2.59206L38.7079 26.0001H51.9999C52.3906 25.9999 52.7727 26.1141 53.0991 26.3287C53.4256 26.5432 53.682 26.8486 53.8369 27.2072C53.9917 27.5658 54.0382 27.962 53.9705 28.3467C53.9028 28.7314 53.7239 29.0878 53.4559 29.3721L21.4559 63.3721C21.1463 63.7013 20.7343 63.916 20.287 63.9811C19.8398 64.0462 19.3837 63.9579 18.993 63.7305C18.6024 63.5032 18.3003 63.1503 18.1359 62.7292C17.9715 62.3082 17.9546 61.8439 18.0879 61.4121L25.2919 38.0001H11.9999C11.6093 38.0002 11.2272 37.886 10.9008 37.6715C10.5743 37.4569 10.3179 37.1515 10.163 36.7929C10.0082 36.4343 9.96171 36.0382 10.0294 35.6534C10.0971 35.2687 10.276 34.9123 10.5439 34.6281L42.5439 0.628058C42.8532 0.299254 43.2646 0.0847324 43.7112 0.0193722C44.1578 -0.045988 44.6134 0.0416575 45.0039 0.268058V0.272058Z" fill="#F5CC00"/>
</g>
<defs>
<clipPath id="clip0_29_19">
<rect width="64" height="64" fill="white"/>
</clipPath>
</defs>
</svg>
