<svg width="402" height="379" viewBox="0 0 402 379" fill="none" xmlns="http://www.w3.org/2000/svg">
<g clip-path="url(#clip0_29_22)">
<path d="M294.011 23.75C248.134 23.75 210.757 61.1258 210.757 107C210.757 152.874 248.134 190.25 294.011 190.25C339.887 190.25 377.265 152.874 377.265 107C377.265 61.1258 339.887 23.75 294.011 23.75ZM507.696 93.5586L425.57 52.5406L454.622 -34.525C458.524 -46.3187 447.337 -57.5055 435.629 -53.5164L348.56 -24.4656L307.453 -106.675C301.903 -117.775 286.119 -117.775 280.569 -106.675L239.549 -24.5523L152.392 -53.6031C140.598 -57.5055 129.411 -46.3188 133.4 -34.6117L162.452 52.4539L80.3254 93.5586C69.2249 99.1086 69.2249 114.891 80.3254 120.441L162.452 161.459L133.4 248.612C129.497 260.405 140.685 271.592 152.392 267.603L239.462 238.552L280.482 320.675C286.032 331.775 301.816 331.775 307.366 320.675L348.386 238.552L435.456 267.603C447.25 271.505 458.438 260.319 454.448 248.612L425.396 161.546L507.523 120.528C518.797 114.891 518.797 99.1086 507.696 93.5586V93.5586ZM372.495 185.48C329.22 228.753 258.801 228.753 215.526 185.48C172.252 142.208 172.252 71.7922 215.526 28.5195C258.801 -14.7531 329.22 -14.7531 372.495 28.5195C415.77 71.7922 415.77 142.208 372.495 185.48Z" fill="#F5CC00"/>
</g>
<defs>
<clipPath id="clip0_29_22">
<rect width="402" height="379" fill="white"/>
</clipPath>
</defs>
</svg>
